<?xml version="1.0" standalone="no"?>
<!DOCTYPE svg PUBLIC "-//W3C//DTD SVG 20010904//EN"
 "http://www.w3.org/TR/2001/REC-SVG-20010904/DTD/svg10.dtd">
<svg version="1.0" xmlns="http://www.w3.org/2000/svg"
 width="673.000000pt" height="673.000000pt" viewBox="0 0 673.000000 673.000000"
 preserveAspectRatio="xMidYMid meet">
<metadata>
Created by potrace 1.11, written by Peter Selinger 2001-2013
</metadata>
<g transform="translate(0.000000,673.000000) scale(0.100000,-0.100000)"
fill="#000000" stroke="none">
<path d="M2978 6555 c-2 -1 -43 -5 -93 -9 -49 -3 -101 -8 -114 -11 -12 -2 -42
-7 -65 -9 -22 -3 -52 -8 -66 -11 -14 -3 -50 -10 -80 -16 -30 -5 -66 -12 -80
-15 -56 -11 -187 -46 -263 -71 -45 -15 -84 -27 -87 -28 -3 -1 -14 -5 -25 -10
-11 -4 -58 -23 -105 -41 -197 -77 -409 -189 -589 -311 -223 -151 -490 -388
-646 -575 -219 -260 -420 -595 -530 -878 -20 -52 -40 -104 -45 -115 -34 -75
-130 -442 -144 -550 -3 -22 -7 -51 -10 -65 -22 -120 -31 -256 -30 -475 0 -255
9 -372 38 -525 3 -14 8 -41 10 -60 11 -67 17 -96 51 -225 31 -118 92 -310 115
-360 5 -11 21 -48 35 -82 146 -357 378 -704 665 -993 168 -169 189 -188 330
-296 362 -278 745 -460 1190 -568 102 -24 124 -29 204 -41 21 -4 46 -8 55 -10
9 -2 44 -6 76 -10 33 -4 71 -9 85 -11 14 -2 118 -7 233 -10 171 -5 207 -4 208
7 1 19 1 6339 0 6362 -1 17 -13 18 -161 16 -88 -1 -161 -3 -162 -4z"/>
<path d="M3430 6544 c-1 -27 -1 -6215 0 -6302 l0 -74 203 6 c193 6 239 9 317
20 19 3 55 8 80 11 285 37 646 152 940 299 167 84 185 95 330 191 190 127 340
251 505 418 389 395 636 820 808 1392 18 59 64 266 71 316 3 19 7 50 11 70 6
40 11 75 22 194 15 147 7 561 -12 685 -7 47 -27 168 -29 182 -2 7 -6 31 -10
53 -5 22 -17 76 -28 120 -11 44 -21 87 -23 95 -2 9 -22 74 -45 145 -117 357
-293 686 -520 975 -109 139 -120 152 -280 310 -144 143 -234 219 -393 333
-409 293 -958 505 -1432 553 -33 3 -71 8 -85 10 -14 3 -116 8 -227 11 -194 5
-203 5 -203 -13z"/>
</g>
</svg>
